<?xml version="1.0" encoding="utf-8"?>
<!-- Generator: Adobe Illustrator 23.1.0, SVG Export Plug-In . SVG Version: 6.00 Build 0)  -->
<svg version="1.1" id="Layer_1" xmlns="http://www.w3.org/2000/svg" xmlns:xlink="http://www.w3.org/1999/xlink" x="0px" y="0px"
	 viewBox="0 0 1280 790.2" style="enable-background:new 0 0 1280 790.2;" xml:space="preserve">
<style type="text/css">
	.st0{fill:#3797DB;}
	.st1{fill:#FFFFFF;}
	.st2{fill:#86B1F2;}
	.st3{fill:#D1EAF2;}
	.st4{fill:#7772D6;}
	.st5{fill:#62BDF3;}
	.st6{fill:#9ED16F;}
	.st7{fill:#EFAC7F;}
	.st8{fill:#45258F;}
	.st9{fill:#D19369;}
	.st10{fill:#282828;}
	.st11{fill:#3B77BE;}
	.st12{fill:#F7A491;}
	.st13{fill:#96A65F;}
	.st14{fill:#5E2E0D;}
	.st15{fill:#5B5BBA;}
	.st16{fill:#2D185D;}
	.st17{fill:#E6FAFF;}
	.st18{fill:#466EB6;}
</style>
<g>
	<g>
		<path class="st0" d="M397.9,273.3l107-2.3c3.4-0.1,6.2-2.9,6.1-6.4l-1.2-55.3c-0.1-3.4-2.9-6.2-6.4-6.1l-107,2.3
			c-3.4,0.1-6.2,2.9-6.1,6.4l1.2,55.3C391.6,270.7,394.4,273.4,397.9,273.3z"/>
		<path class="st1" d="M455.5,237c0.2,11,9.4,19.8,20.4,19.5c11-0.2,19.8-9.4,19.5-20.4c-0.2-11-9.4-19.8-20.4-19.5
			C464,216.8,455.3,226,455.5,237z"/>
		<path class="st2" d="M469.4,228.7c0.1,3.3,2.8,5.8,6,5.8c3.3-0.1,5.8-2.8,5.8-6c-0.1-3.3-2.8-5.8-6-5.8
			C471.9,222.8,469.3,225.5,469.4,228.7z"/>
		<path class="st2" d="M466.3,247.5l18.8-0.4l0-2.1c-0.1-3.9-3.3-6.9-7.1-6.8l-4.9,0.1c-3.9,0.1-6.9,3.3-6.8,7.1L466.3,247.5z"/>
		<g>
			<path class="st3" d="M449.3,227.7c1-0.4,1.7-1.4,1.6-2.4c0-1.4-1.2-2.5-2.6-2.5l-46.8,1c-0.3,0-0.6,0.1-0.9,0.2
				c-1,0.4-1.7,1.4-1.6,2.4c0,1.4,1.2,2.5,2.6,2.5l46.8-1C448.7,227.9,449,227.8,449.3,227.7z"/>
		</g>
		<g>
			<path class="st3" d="M442.1,242.2c1-0.4,1.7-1.4,1.6-2.4c0-1.4-1.2-2.5-2.6-2.5l-36.5,0.8c-0.3,0-0.6,0.1-0.9,0.2
				c-1,0.4-1.7,1.4-1.6,2.4c0,0.7,0.3,1.3,0.8,1.8c0.5,0.5,1.1,0.7,1.8,0.7l36.5-0.8C441.5,242.4,441.8,242.3,442.1,242.2z"/>
		</g>
	</g>
	<g>
		
			<rect x="838.7" y="351.9" transform="matrix(-1.836970e-16 1 -1 -1.836970e-16 1475.7242 -463.1047)" class="st4" width="261.4" height="308.9"/>
		
			<rect x="849.5" y="362.7" transform="matrix(-1.836970e-16 1 -1 -1.836970e-16 1475.7244 -463.1048)" class="st0" width="239.7" height="287.1"/>
		<rect x="843.6" y="578.6" class="st5" width="196.2" height="29.3"/>
		<path class="st6" d="M874.8,593.5c0,5.6-4.6,10.2-10.2,10.2c-5.6,0-10.2-4.6-10.2-10.2s4.6-10.2,10.2-10.2
			C870.2,583.3,874.8,587.9,874.8,593.5z"/>
	</g>
	<g>
		
			<rect x="211.4" y="240.9" transform="matrix(-1.836970e-16 1 -1 -1.836970e-16 769.4615 55.9109)" class="st5" width="290.8" height="343.5"/>
		
			<rect x="223.5" y="253" transform="matrix(-1.836970e-16 1 -1 -1.836970e-16 769.4612 55.9106)" class="st0" width="266.6" height="319.4"/>
		<rect x="246.8" y="294.8" class="st3" width="196.2" height="29.3"/>
		<path class="st6" d="M278,309.8c0,5.6-4.6,10.2-10.2,10.2c-5.6,0-10.2-4.6-10.2-10.2c0-5.6,4.6-10.2,10.2-10.2
			C273.4,299.6,278,304.2,278,309.8z"/>
	</g>
	<g>
		
			<rect x="60.9" y="347.7" transform="matrix(-1.836970e-16 1 -1 -1.836970e-16 652.063 307.1033)" class="st4" width="223.2" height="263.7"/>
		
			<rect x="70.1" y="357" transform="matrix(-1.836970e-16 1 -1 -1.836970e-16 652.0632 307.1031)" class="st5" width="204.7" height="245.2"/>
		<path class="st3" d="M203.8,396.8c0,0-4.1,20,4.1,30c8.2,10,14.1,11.2,14.1,11.2s3.5,14.1,8.8,15.9c0,0,1,7.8-1.2,8.2
			c-2.2,0.4-6.1,8.8-4.3,15.7c0,0-13.7,2.4-14.7,12.7c0,0-3.5,1.4-7.1,0.2c-3.5-1.2-11,2.2-16.5,1.6c-5.5-0.6-14.3-10.2-22.9-6.3
			c-8.6,3.9-6.3,44.9-6.3,44.9h8c0,0-0.6-29.8,3.7-30.4c4.3-0.6,9.2,4.9,22.3,13.9c13.1,9,50.2,14.5,71.5-13.5
			c9.9-13,12.4-30.2,10.6-46.1c-1.6-13.4-7.2-37.5-23.3-40.5c-6.2-1.2-14.6-1.3-19.2,3.9c-3.5,3.9-15.1,1.6-16.7-3.1
			c-1.6-4.7-0.4-18-0.4-18L203.8,396.8z"/>
	</g>
	<polygon class="st6" points="108.1,289.2 103.3,295.7 92.6,290.6 84.5,299.4 75.7,296.9 73.8,301.4 85.6,304.7 93.3,296.4 
		104.4,301.7 111.6,292 	"/>
	<g>
		<path class="st5" d="M1156.4,763.2H13.6c-1.6,0-2.8,1.3-2.8,2.8l0,0c0,1.6,1.3,2.8,2.8,2.8h1132.3c12.1,0,13.4-1.3,13.4-2.8
			S1158,763.2,1156.4,763.2z"/>
	</g>
	<polygon class="st6" points="1269.2,292.5 1259.5,285.7 1252.5,294.3 1242.7,288.1 1235,295.5 1226.8,292 1225.1,296.1 1236,300.8 
		1243.2,293.8 1253.5,300.3 1260.3,291.8 1269.2,298 	"/>
	<polygon class="st6" points="233.8,137 225.2,141.2 225.4,151 215.5,155 218.9,165.4 207.8,170.5 209.8,180.4 200,187 197.5,183.3 
		204.8,178.3 202.7,167.9 213.4,163 209.9,152.5 220.9,148 220.7,138.4 228.6,134.5 227.2,128.3 231.6,127.3 	"/>
	<g>
		
			<rect x="448" y="141.4" transform="matrix(-1 -1.224647e-16 1.224647e-16 -1 1405.6616 691.7699)" class="st4" width="509.6" height="409.1"/>
		
			<rect x="511.1" y="100.2" transform="matrix(-1.836970e-16 1 -1 -1.836970e-16 1048.7158 -356.9456)" class="st5" width="383.4" height="491.4"/>
		<g>
			<ellipse class="st3" cx="589.6" cy="199.9" rx="16.1" ry="23.5"/>
			<path class="st3" d="M602.8,204.3c-0.3,2.7,0.8,5.1,2.5,5.3c1.6,0.2,3.2-1.9,3.5-4.7c0.3-2.7-0.8-5.1-2.5-5.3
				C604.6,199.5,603.1,201.6,602.8,204.3z"/>
			<path class="st3" d="M571.2,205c0.3,2.7,1.9,4.8,3.5,4.6c1.6-0.2,2.7-2.6,2.4-5.3c-0.3-2.7-1.9-4.8-3.5-4.6
				C572,199.9,570.9,202.2,571.2,205z"/>
			<path class="st3" d="M529,360.9c2-5.1,5.9-11.1,5.9-11.1s0.6-28,2.7-34.5c2.1-6.6,4.6-13,5-16.8c0.4-3.9-0.6-31,1.3-39.1
				c1.9-8.1,6.7-15.6,11.7-18.3c5-2.7,22.6-8.4,24.2-11.7c1.6-3.3-0.3-18.4-0.3-18.4l10.2-3v0l0,0l0,0v0l10.2,3
				c0,0-1.9,15.1-0.3,18.4c1.6,3.3,19.8,10.5,24.8,13.2c5,2.7,9.1,8.6,11,16.8c1.9,8.1,0.9,35.2,1.3,39.1c0.4,3.9,2.9,10.3,5,16.8
				c2.1,6.6,2.7,34.5,2.7,34.5s3.9,6,5.9,11.1c2,5.1-4.1,20.8-7.7,19.8c-3.6-1,0.9-11-0.9-13.6c-1.7-2.6-3.3-2.3-3.9-0.4
				c-0.6,1.9,0.3,5.3-0.7,5.3c-1,0-3.4-5.6-3-10.1c0.4-4.6,1.9-8.6,1-12c-0.9-3.4-11.2-35.1-12.6-40.9s-1.6-33.2-3.1-33.6
				c0,0-2.7,13.8-5.6,26l2.3,18.8c0,0,3.4,25.8,4.4,33.8c1,8-2.7,62.9-2.7,62.9s2.9,18.4,2.7,28.3c-0.1,9.8-6.1,49.9-6.1,49.9
				s1.4,10.1,4.6,14.4c3.1,4.3,0.9,7.7-2.4,9.3c-3.3,1.6-9.3,2.7-10.8,2.3c0,0-1.4,0-1-8.4c0.4-8.4,0.9-15.8-0.1-18.4
				c-1-2.6,0.1-3.9,0.9-6.8c0.7-3-8-48.2-6.7-54.4c1.3-6.3,1.5-14.5,1.9-19.7c0.4-5.1-10.1-50-10.1-50h-2c0,0-10.6,45.2-10.1,50.3
				c0.4,5.1,1,14.3,2.2,20.5c1.3,6.3-7.7,50.3-7,53.3c0.7,3,1.9,4.3,0.9,6.8c-1,2.6-0.6,10-0.1,18.4c0.4,8.4-1,8.4-1,8.4
				c-1.6,0.4-7.6-0.7-10.8-2.3c-3.3-1.6-5.6-5-2.4-9.3c3.1-4.3,4.6-14.4,4.6-14.4s-6-40.1-6.1-49.9c-0.1-9.8,2.7-28.3,2.7-28.3
				s-3.7-54.9-2.7-62.9c1-8,4.4-33.8,4.4-33.8l2.3-18.8c-2.9-12.1-5.6-26-5.6-26c-1.4,0.4-1.7,27.1-3.1,32.9
				c-1.4,5.9-11.7,38.1-12.6,41.5c-0.9,3.4,0.6,7.4,1,12c0.4,4.6-2,10.1-3,10.1c-1,0-0.1-3.4-0.7-5.3c-0.6-1.9-2.1-2.1-3.9,0.4
				c-1.7,2.6,2.7,12.6-0.9,13.6C533.2,381.7,527,366,529,360.9z"/>
		</g>
		
			<rect x="698.2" y="168.3" transform="matrix(-1 -1.224647e-16 1.224647e-16 -1 1618.6687 694.0033)" class="st0" width="222.3" height="357.4"/>
		<path class="st6" d="M616.8,269.7c0,5.6-4.6,10.2-10.2,10.2c-5.6,0-10.2-4.6-10.2-10.2c0-5.6,4.6-10.2,10.2-10.2
			C612.3,259.5,616.8,264,616.8,269.7z"/>
		<path class="st6" d="M574.8,331.4c0,5.6-4.6,10.2-10.2,10.2c-5.6,0-10.2-4.6-10.2-10.2c0-5.6,4.6-10.2,10.2-10.2
			C570.2,321.3,574.8,325.8,574.8,331.4z"/>
		<circle class="st6" cx="616.8" cy="421.9" r="10.2"/>
		<path class="st6" d="M607,181.6c0,5.6-4.6,10.2-10.2,10.2c-5.6,0-10.2-4.6-10.2-10.2c0-5.6,4.6-10.2,10.2-10.2
			C602.4,171.4,607,176,607,181.6z"/>
		<rect x="716.8" y="201.5" class="st3" width="196.2" height="29.3"/>
		<path class="st6" d="M748.1,216.5c0,5.6-4.6,10.2-10.2,10.2c-5.6,0-10.2-4.6-10.2-10.2c0-5.6,4.6-10.2,10.2-10.2
			C743.5,206.3,748.1,210.9,748.1,216.5z"/>
		<rect x="716.8" y="242.9" class="st3" width="196.2" height="29.3"/>
		<path class="st6" d="M748.1,257.9c0,5.6-4.6,10.2-10.2,10.2c-5.6,0-10.2-4.6-10.2-10.2c0-5.6,4.6-10.2,10.2-10.2
			C743.5,247.7,748.1,252.3,748.1,257.9z"/>
		<rect x="716.8" y="286.2" class="st3" width="196.2" height="29.3"/>
		<path class="st6" d="M748.1,301.2c0,5.6-4.6,10.2-10.2,10.2c-5.6,0-10.2-4.6-10.2-10.2c0-5.6,4.6-10.2,10.2-10.2
			C743.5,291,748.1,295.6,748.1,301.2z"/>
	</g>
	<g>
		<path class="st7" d="M821.2,418.2c-0.5,1.8-0.8,2.4-1.4,3.6c-4,7.8-13.3,18.9-13.3,18.9l-7.2-17.3c0,0,1.2-5.4,3.2-13.2
			C809.4,412.1,816,413.2,821.2,418.2z"/>
		<path class="st8" d="M779.9,403.1c0,0,40.1,18.4,41.4,18.1c0.8-0.2,16.5-28.1,16.6-54.4c0.1-12.1-11.7-26.7-24.9-23.8
			c-6.6,1.5-6.5,3.4-16.3,18.6C787,376.8,779.9,403.1,779.9,403.1z"/>
		<path class="st7" d="M745.6,733.9c0,0,1,16.8,1,16.9c0.4,2.1,1.7,7.4,1.7,9.4c0,7.3-32.5-6.2-25.2-9.4c0.7-0.3,4.1-2.5,4.3-5
			c0.3-3.8,1.2-11.6,1.2-11.6L745.6,733.9z"/>
		<path class="st8" d="M723.2,750.6c0,0,7.6,2.2,11.5,2.8c3.9,0.6,9-4.1,11.8-2.9c3,1.4,2.9,14,2.9,14s-40.9,3.6-52.4-0.1
			C692.6,762.9,707.7,755.8,723.2,750.6z"/>
		<path class="st7" d="M812,733.9c0,0,1,16.8,1,16.9c0.4,2.1,1.7,7.4,1.7,9.4c0,7.3-32.5-6.2-25.2-9.4c0.7-0.3,5.1-4.2,5.3-6.6
			c0.3-3.8,0.2-9.9,0.2-9.9L812,733.9z"/>
		<path class="st8" d="M789.6,750.6c0,0,7.6,2.2,11.5,2.8c3.9,0.6,9-4.1,11.8-2.9c3,1.4,3.2,14,3.2,14s-41,4.2-52.6-0.1
			C759,762.7,774,755.8,789.6,750.6z"/>
		<g>
			<path class="st7" d="M773.6,384.5c-0.1-0.4-0.4-1.1-0.8-2.3c-1.4-4.2-4.4-13.1-7-21.8l0-0.1c-0.8-3.1-2.6-8.4-4.2-13.6
				c-1.9-5.8-4.2-12.9-4.3-14.1c0.1-0.2,1.1-1.4,1.2-1.9c1-2.9,1.8-9,2.1-12c0.2-1.9-0.3-13.4-2.5-13.4c-2.6,0-2.1,6.1-2.6,9.3
				c-0.1,0.7-1.2,0.7-1.3,0c-0.2-1.1-0.4-2.5-0.7-4.6l-0.6-9.1c-0.1-0.7-0.3-11.3-2.6-11.3c-2.7,0-1.3,11.1-2.2,20.1
				c-0.3-1-0.6-2.3-0.8-3.4c0-0.6-0.8-5-1.1-6.4c0.4-2.5,0.6-12.9-1.9-12.5c-1.3,0.2-1.6,11.9-1.6,11.9c0,0.8,0.5,8.5,0.4,9.6
				c-0.3-2-1.9-20.6-3.8-20.6c-1.6,0-1.4,7-1.1,14.3c0,1.1,0.7,7.9,0.8,9c-0.8-1.4-2.3-13.8-3.1-13.8c-3.2,0-1.1,18,0.1,21
				c0.1,0.3,0.2,0.9,0.4,1.6c0.4,2,1.1,5.4,2.7,8.4c2,3.6,4.4,5.7,4.8,6.6c0.3,1.8,1.6,12.1,2.8,20.2c0.5,3.5,1.1,7.3,1.7,11.3l0,0
				c0.1,0.9,0.7,3.6,3,13.9c3.1,14.1,3.4,14.7,3.6,14.9c1.3,2.5,32.2,47.2,33.5,49.1l0.8,1.1l13-18.7L773.6,384.5z"/>
			<path class="st9" d="M748.5,323.2c0,0,2.3-6.3,6.5-6.3c0,0-2.3-0.9-4.3,0.8C748.7,319.3,748.5,323.2,748.5,323.2z"/>
		</g>
		<g>
			<path class="st7" d="M809,315.6l3.7,24.8c0,0-14,12-22.2,9.5c-6.9-2.1-2.2-11.7-2.2-11.7s3.7-13.3,2.5-20.2
				C789.8,311,809,315.6,809,315.6z"/>
			<path class="st9" d="M806.4,323.1c-3.5,1.8-10.5,4.2-15.9,4.8c0.5-3.5,0.8-7.2,0.4-9.9c-0.5-3.2,3.3-4,7.6-3.9
				c5.6,0.5,10.6,1.4,10.6,1.4l0.7,4.8C808.7,321.5,807.6,322.5,806.4,323.1z"/>
			<path class="st7" d="M826.7,286.9c0.6,0-5.5,27.7-15,32.5c-9.5,4.8-23.6,2.3-26.3-5.2c-2.9-8.3,7.8-36.6,21.1-40.2
				C819.9,270.5,826.7,286.9,826.7,286.9z"/>
			<path class="st10" d="M815.8,261.4c7.6,4.7,11,11.6,12.2,14.4c3.6,1.8,7.8,5.7,9.9,16.2c2.5,12.9-6.5,22.8-16,25.8
				c-9.6,3-11.1,9.5-11.1,9.5l-1.1-7.1c0,0,2.1-6.3,5.3-9.5c3.2-3.2-1.5-7.8-1.9-11.5c-0.3-2.9,1.7-8.5,1.2-13.3
				c0,0-5.3-8.6-10.5-10.7C794.9,271.6,806.1,255.4,815.8,261.4z"/>
			<path class="st7" d="M811.7,304.1c-1.2,3.2-0.7,6.4,1.1,7.1c1.9,0.7,4.4-1.3,5.6-4.5c1.2-3.2,0.7-6.4-1.1-7.1
				C815.5,298.8,813,300.9,811.7,304.1z"/>
		</g>
		<path class="st7" d="M776.4,428.2l-55.1-9.6c0,0,6.3-16.9,8.5-16.9s41.7,18.4,41.7,18.4l3.1,6.7L776.4,428.2z"/>
		<path class="st11" d="M804.7,468.5c0,0,5.5,28.4,3.3,49.9c-2.2,21.5-2.4,98-2.4,98l8.6,122.3l-20.3,0.5c0,0-24.1-122.2-23.6-119.1
			c0.4,3.1-8.1-86.1-8.1-86.1l28.7-68.1L804.7,468.5z"/>
		<path class="st5" d="M799.3,467.2c0,0,3.6,25.6-0.9,36.8c-4.5,11.2-38.5,121.2-38.9,130.1c-0.4,9-11.7,108.1-11.7,108.1l-23.6-0.7
			l-5.1-110.2l10.7-138.5l10.4-35L799.3,467.2z"/>
		<path class="st12" d="M812.7,340.4c0,0-5.8,4.1-11.2,3.6c-5.4-0.5-13.1-5.8-13.1-5.8l1.1-3.9c0,0,14-2.2,14.4-1.9
			C804.2,332.6,812.7,340.4,812.7,340.4z"/>
		<path class="st7" d="M750.7,400.9c0,0-20.9,21-30.3,17.4c-9.4-3.6-13.3-15.8,9.7-33.8C750.6,368.5,750.7,400.9,750.7,400.9z"/>
		<path class="st4" d="M736.6,426.8c3.1-18,25.6-74,27.3-84.3c0.9-5,13-5.1,24.5-4.5c12.2,0.7,24.3,2.3,24.3,2.3s10.8,1.9,15.5,6.6
			c4.7,4.7,6,17.9-0.8,42.8c-5.4,19.7-12.1,30.5-15.4,44.8c-0.7,4.8-1.2,9.5-2,15.1c-1.2,21.4,0,49.7,0,49.7s-58.7,13-80.7-6.7
			C729.4,492.7,733.4,445.2,736.6,426.8z"/>
		<path class="st8" d="M721.6,388.1c0,0,23,20.3,24.4,20.3c0.9,0,32.9-25.1,40.3-45.8c4.1-11.4-4.5-24.2-14.3-24.1
			c-6.8,0-9.8,1.9-23.3,14C735.3,364.6,721.6,388.1,721.6,388.1z"/>
	</g>
	<g>
		<path class="st7" d="M88.4,719c0,0-1.7,16.8-5.9,19.9c-4.3,3.1-9.9,14.5-7.1,20.7c2.8,6.2,14.7,4,14.7,4s7.1-6.5,7.7-20.1
			c0.6-13.6,4.9-20.6,4.9-20.6L88.4,719z"/>
		<path class="st7" d="M155.8,725.7c0,0,1.3,17,0.3,22.5c-0.6,3-3.8,9-2.3,11.8c1.5,2.8,3.2,3.5,3.2,3.5l43.2,0.7
			c0,0-0.1-5.4-20.6-11.3c-2.6-0.7-5.5-3.3-7.8-5.9c-2.8-3.1-3-18-3-18L155.8,725.7z"/>
		<path class="st13" d="M186.6,500.3c0,0,4.9,27.5,1.7,45.6c-3.2,18-16.8,186.2-16.8,186.2l-20.6,0.2c0,0-3.8-68.8-3.1-78.6
			c0.6-9.7,5.1-24.7,5.1-24.7l0.4-58.8l21.8-74.1L186.6,500.3z"/>
		<path class="st6" d="M135.9,494.6c0,0-13.6,20.1-16.8,36.8c-3.2,16.7,2.4,67.8-3.8,89.7c-3.4,11.8-19.8,28.6-21.7,43.9
			C91.6,680.2,83.4,722,83.4,722l21.4,2.9l40.1-99.9l31.4-90.3l8.1-46.5L135.9,494.6z"/>
		<path class="st8" d="M96.1,753.2c-9.3,1.7-15.4-3.7-18.6-7.8c-2.4,4.6-3.8,10.3-2.1,14.1c2.8,6.2,14.7,4,14.7,4
			S93.8,760.2,96.1,753.2z"/>
		<path class="st8" d="M179.4,752.8c-0.7-0.2-1.5-0.6-2.3-1c-10.2,2.6-17.7,0.8-22-0.9c-1.1,3.1-2.6,6.7-2.3,9
			c0.4,2.8,1.7,3.8,1.7,3.8l45.5,0.3C200,764.1,199.9,758.7,179.4,752.8z"/>
		<g>
			<path class="st7" d="M244.6,548.5c0,0-2-2.2-2.7-3c-0.7-0.9-2.7-3.8-2.7-3.8s-6.4-10.4-5.5-10.8c0.8-0.4,2.9,0.8,3.5,1.3
				c0.6,0.5,1.4,1,2,1.5c0.6,0.5,1.5,0.5,2.2-0.2c0.7-0.7-1.3-3.3-2.2-4c-2.7-2.3-11.3-7.1-12.2-7.6c-1-0.6-8.7-20.6-11.9-27.3
				c0,0,0,0,0,0c-4.9-11-9.3-22.6-9.8-23.8l-6.1-51.1l-19.9-5.2c0,0,6,56.8,6.6,59.6c0.3,1.3,13.6,26.1,13.6,26.1
				c7.3,11.8,13.8,22.1,15,24.2c0,0,1.9,7,2.9,11.5c0.9,4.5,3.7,8.3,4.1,9.5c0.1,0.2,1.4,4.5,5,8.8c3,3.7,1.9-1.2,1.9-1.2
				s-4.4-7.9-3.7-8.2c0.5-0.2,2.7,4.3,6,8.5c0.9,1.1,1.7,2.1,2.5,3.1c2.1,2.5,4.2,2,2.5-1c-0.6-1.1-1.7-2.8-2.6-3.9
				c-1-1.2-1.5-2.7-2.2-3.8c-1.4-2.3-2.4-3.9-2.3-3.9c0.2,0,0.2-0.7,1.2,0.5c1.1,1.3,2.9,4.7,4.7,6.5c1,1,3.1,3.3,3.1,3.3
				s3.7,3.4,3.9,3.2c1.3-0.9-0.6-4-2.2-5.3c-0.6-1.3-2.8-3.7-2.8-3.7s-3.4-5.8-2.5-6.3c0.7-0.4,11.4,11.9,12.7,10.9
				C247.7,552.3,244.6,548.5,244.6,548.5z"/>
			<path class="st9" d="M224.6,530.4c0,0,5.9,3.3,9,0.6c0,0-1.2,2.2-3.7,2.2C227.3,533.3,224.6,530.4,224.6,530.4z"/>
		</g>
		<path class="st14" d="M147.4,316.2c-2.9,7.9-10.4,9-18,12.4c-5.1,2.3-6.8,11.8-5.1,18.4c4.4,16.7-9.4,11.6-18.8,20.6
			c-22.6,21.6,14.8,42,20.1,45.4c5.3,3.4,25.5,9.9,29,10.4c10.7,1.5,24.7-4.2,33.5-16.6c8.9-12.4,1.1-21.2,2.5-29.3
			c1.4-8,11.4-7.6,10.8-23.7c-0.6-17.3-6-31.4-13.7-38.6c-12.8-12-31.1-9.5-37-4.1C149.1,312.8,148,314.5,147.4,316.2z"/>
		<path class="st15" d="M182.2,380.5c0,0,5.9,2.7,14,19c7.5,15.2,8.7,50.4,8.7,50.4s-11.9,3.8-18.8,2.5
			C179.3,451.1,182.2,380.5,182.2,380.5z"/>
		<path class="st4" d="M159.7,375.4c0,0-4,0.3-24.2,4.6c-3.3,0.7-8.4,4.5-10.4,8c-10.3,18.4-19.4,51.2-19.4,51.2s16.9,5.5,22.7,5.5
			l6.9-21.9c0,0,7.9,46.1,4.6,54c-3.3,7.8-11.4,27.6-11.4,27.6s0.1,4.2,31,7.5c12.4,1.3,27.8-1.3,27.8-1.3s-2.8-30-0.3-43
			c4.1-21.2,12-46.6,12.4-49.8c0.7-5.2-11.4-34.7-17.6-37.5c-1.6-0.7-4.3-2.2-6.6-2.8C168.1,375.9,159.7,375.4,159.7,375.4z"/>
		<path class="st7" d="M162.4,354.5c0,0-0.6,14.8-2.5,20.2c-1.9,5.4,3.9,25.2,15.7,28c10.6,2.6,3-15.8,1.5-23.7
			c-0.2-0.9,1.9-28.2,1.9-28.2L162.4,354.5z"/>
		<path class="st9" d="M178.2,359.5c0.9-4.7,1.8-8.5,1.8-8.5l-17.6,3.6c0,0-0.1,3-0.5,6.8C168.5,364.4,174.2,363,178.2,359.5z"/>
		<path class="st7" d="M167.7,314.4c0,0-6.9,1.9-10.9,8.7c-4,6.8-6,26.3,8.7,34.6c14.6,8.3,25-5,24.6-17.5
			C189.7,327.7,186.2,311.2,167.7,314.4z"/>
		<path class="st7" d="M191.4,336c-1.1,3.1-3.4,5.1-5.2,4.4c-1.8-0.6-2.4-3.6-1.3-6.7c1.1-3.1,3.4-5.1,5.2-4.4
			C191.9,329.9,192.5,332.9,191.4,336z"/>
		<path class="st7" d="M155.7,340.2c1.2,3.2,0.4,6.4-1.7,7.2c-2.2,0.8-4.9-1.1-6.1-4.3c-1.2-3.2-0.4-6.4,1.7-7.2
			C151.8,335.1,154.5,337.1,155.7,340.2z"/>
		<polygon class="st11" points="188,512.1 137.7,503.7 148.5,433.8 201.5,444.2 		"/>
		<path class="st7" d="M195.6,473.7c-0.1-0.3-4.2,0.9-7.1-0.4c-0.6-0.2,2-1.6,2.4-2.1c0.1-0.1,5-2,5-4c0-2-4.1-1.5-4.1-1.5
			s-11.8,2.9-13.6,4.1c-1.8,1.2-2.7,2.3-2.8,2.4c-0.7,0.1-1.3,0.1-1.7,0.1c-10.2-0.6-25.9-6-49.9-14.7l2.5-13
			c-5.3-0.7-14.2-3.4-18.4-4.7c-1.7,9.9-5.1,27-3.6,30.7c1,2.6,13.8,6.6,28.1,10.5c18.2,5,23.3,4.9,39.5,6.8
			c4.9,0.6,11.3,3.4,13.9,3.9c3.8,0.7,5,1.4,7.3-0.2c1.9-1.4,2.5-5.5,2.8-8.1C196.2,478.7,196.4,476.8,195.6,473.7z"/>
	</g>
	<g>
		<g>
			<path class="st0" d="M1180.6,210l-3.8,0l-7.7-10.8l-6,24.2l-4.4-42l-12.3,27.3l-5.3-9.7l-6.9,12.2l-9.2-11.4l-4.2,20.6l-3.8-35.5
				l-13.4,24.1l-32.1-0.1c-0.8,0-1.5,0.6-1.5,1.5l0,0c0,0.8,0.6,1.5,1.5,1.5l35.2,0.1l7.3-13.1l5.4,50.3l8.2-39.9l7.4,9.1l6-10.8
				l5.8,10.6l9.1-20.3l5.3,51.2l9.9-40l2.8,3.9l8.5,0C1181.8,211.9,1181.1,210.9,1180.6,210z"/>
			<path class="st6" d="M1207.2,193.2c0,0,4.3-5.9,12.7-5.9c7.5,0,12.7,6.1,12.6,13.2c0,8.2-7.1,17.8-25.5,26.2
				c-18.3-8.5-25.3-18.2-25.3-26.3c0-7.1,5.2-13.1,12.7-13.1C1202.9,187.3,1207.2,193.2,1207.2,193.2z"/>
		</g>
	</g>
	<g>
		
			<rect x="337.4" y="108.5" transform="matrix(-0.9964 8.504144e-02 -8.504144e-02 -0.9964 696.6686 200.0139)" class="st4" width="13.3" height="12.8"/>
		
			<rect x="340.2" y="121.9" transform="matrix(-0.9964 8.502980e-02 -8.502980e-02 -0.9964 698.9409 217.7194)" class="st4" width="9.4" height="3.6"/>
		<path class="st4" d="M330.8,82.2c2.1-0.2,3.7-2,3.5-4.2l-0.6-7l13.3-1.1l0.6,7c0.2,2.1,2,3.7,4.2,3.5l1.9,22.6
			c0.2,2-1.3,3.7-3.3,3.9l-13.8,1.2c-1.5,0.1-2.9-0.7-3.5-2C332.8,103.8,330.8,82.2,330.8,82.2z"/>
		
			<rect x="330.2" y="65.8" transform="matrix(-0.9964 8.505048e-02 -8.505048e-02 -0.9964 684.7512 107.2088)" class="st4" width="19.7" height="4.7"/>
		
			<rect x="316.7" y="142" transform="matrix(-0.9964 8.504908e-02 -8.504908e-02 -0.9964 663.9712 268.6318)" class="st4" width="19.2" height="12.9"/>
		<path class="st4" d="M301.9,163.9l71-6.1l-0.2-2.1c-0.2-2.6-2.5-4.6-5.1-4.3l-61.6,5.3c-2.6,0.2-4.6,2.5-4.3,5.1L301.9,163.9z"/>
		
			<rect x="326.5" y="134.1" transform="matrix(-0.9964 8.504893e-02 -8.504893e-02 -0.9964 700.0714 244.8015)" class="st6" width="36.7" height="6.4"/>
		<path class="st4" d="M339.5,102.3c-4.6,0.2-9.5,0.4-9.5,0.4l-0.5,0c-11.3,0.8-21.2,12.4-13.9,27.5l0.2,0.4
			c3.9,6.7,9,9.3,16.1,15.2l-6.2,7.3c-7.5-5.3-14.7-8.5-20.4-17.8c-0.1-0.2-8.6-13.7-2.7-27.9c4.9-11.5,15-18.3,25.8-19.7l10.4-1.3
			L339.5,102.3z"/>
	</g>
	<g>
		<g>
			<path class="st7" d="M532.4,271.3c-0.5-4.2-12-7.6-15.5-8.6c-3.4-1-1.2-0.2-5,1c-0.5,0.1-11.9,17.6-11.9,17.6
				c-3.6,5.7-36.8,56.3-47.9,64c-11.4,7.9-56.8,21.6-56.8,21.6l-2.1,29c0,0,62.7-21.5,76.2-33c11.1-9.5,33.3-55.5,43.9-72.5l0,0
				C516,286.9,532.8,275.5,532.4,271.3z"/>
			<path class="st8" d="M590.5,181.1l-77,97.5l-0.1,0.1c-1.4,1.8-4.1,2.1-5.9,0.7c-1.8-1.4-2.1-4.1-0.7-5.9c0,0,0.1-0.1,0.1-0.1
				l81-94.3l0,0c0.6-0.7,1.6-0.7,2.3-0.2C590.9,179.5,591,180.4,590.5,181.1z"/>
			<path class="st9" d="M524.1,265.1l-10.7,13.5l-0.1,0.1c-1.4,1.7-3.8,2.1-5.6,0.9c0.2,0.4,0.6,0.7,0.9,1c1.8,1.4,4.5,1.1,5.9-0.7
				l0.1-0.1l11.1-14C525.3,265.6,524.7,265.3,524.1,265.1z"/>
			<path class="st7" d="M523.8,259.1c0,0,11.4,10.1,8.5,14.3c-3.2,4.7-7.2,7.2-7.4,5.8c-0.2-1.4,2.4-8.2,2.4-8.2s-3.6-4.6-4.3-7
				C522.3,261.5,521.8,259,523.8,259.1z"/>
			<path class="st7" d="M518.4,264.5c0,0-7.2,3.1-7.6,2.2c-0.4-0.9,1.1-3,1.1-3s9.6-7.3,10-4.7C522.3,261.7,518.4,264.5,518.4,264.5
				z"/>
			<path class="st7" d="M531.1,262.7c0,0-6.2-7-6.4-4.7c-0.3,2.8,4.9,11,7.4,11C534.6,269,534.6,266.6,531.1,262.7z"/>
			<path class="st6" d="M385.8,364.1c0,0,51.6-16.6,60.9-21c9.3-4.4,46.7-59.6,46.7-59.6L514,294c0,0-45.8,74.5-47.8,77.7
				l-63.5,30.7L385.8,364.1z"/>
			<path class="st7" d="M376.1,725.1c0,0-2.7,15.5-4.1,18c-1.4,2.5,10.3,16.3,16.7,14.1c3.6-1.3,4.2-12.6,4.2-12.6l-2.6-3.2
				l3.6-13.5L376.1,725.1z"/>
			<path class="st8" d="M371.8,742.4c0,0,7.5,1.5,11,1.7c4.5,0.2,9.7-0.3,9.7-0.3s9.4,3.5,12.3,5c6.6,3.3,14.6,7.3,16.7,10.5
				c0.7,1,0.6,4.5-1.9,5.2c-9.6,2.5-43.5,2-49.7-0.5C362.8,761,371.8,742.4,371.8,742.4z"/>
			<path class="st7" d="M316.6,725.1c0,0-2.7,15.5-4.1,18c-1.4,2.5,10.3,16.3,16.7,14.1c3.6-1.3,4.2-12.6,4.2-12.6l-2.6-3.2
				l3.6-13.5L316.6,725.1z"/>
			<path class="st8" d="M312.3,742.4c0,0,7.5,1.5,11,1.7c4.5,0.2,9.7-0.3,9.7-0.3s9.4,3.5,12.3,5c6.6,3.3,14.6,7.3,16.7,10.5
				c0.7,1,0.7,5-1.9,5.2c-10.7,0.8-44.1,0.9-50.4-1.6C302.7,759.9,312.3,742.4,312.3,742.4z"/>
			<g>
				<path class="st16" d="M418.3,485.2l11.7,30.3c0,0,7.6,72.3,3.2,115.7c-1.9,18.1-38.3,108.3-38.3,108.3s-5,1.5-11.5,0.6
					c-2.7-0.4-10.9-1.8-10.9-1.8l25.4-109.7l-9.9-43.9L374,497.9L418.3,485.2z"/>
				<path class="st8" d="M361.8,486.8l-10,33.8l-4.3,108l-36.5,103.4c0,0,10.9,6,27.5,5.4l40.5-98.4L414,514.7l-1.4-26.8
					L361.8,486.8z"/>
			</g>
			<path class="st3" d="M365.5,363.1c0,0-15.1,2.1-19.1,5c-4.5,3.3-18.3,18.6-18.3,18.6s28.8,82.6,27.7,97.3
				c-1.1,14.7-4.3,36.5-4.3,36.5s56,3.5,77.2-4.8c0,0-6.7-33.3-6.7-42s-9.8-94.9-12.5-99.5c-2.7-4.6-17-11.4-19.9-11.5
				C378.9,361.9,365.5,363.1,365.5,363.1z"/>
			<path class="st6" d="M444.2,585.2c0.4-1.8-14.4-84.3-14.6-87.3c-2.4-29.3-10.5-119.3-20.8-131.7c-1.2-1.2-4.3-2.1-7.7-2.5
				c-5.7-0.7-11.5-1.2-11.5-1.2s7,5.7,8.7,8.1c7.7,10.9,10.8,23.5,12.5,36.9c4.9,39,9.4,181.2,11.1,181.8
				C423.9,590.1,443.4,589,444.2,585.2z"/>
			<path class="st17" d="M371.6,287.4c0,0-10.2-6.9-14.6,5.2c0-0.1-3.6-0.1-4.1,0.1c-2.1,0.7-4.1,2.9-6,4.1
				c-6.7,4.3-9.8,12.6-10.1,20.2c-0.4,9.3,3.4,16.1,9.5,22.8c1.8,2,3.7,3.9,6.1,5.2c2.8,1.5,5.1,0.3,7.8,1c2.2,0.5,3,2.9,5.7,2.1
				c3.7-1.2,7.6-5.9,12.2-5.2c4.6,0.7,15.2-3.5,15.2-3.5c13.6-5.3,4.4-31.7,1.8-41.1C392.6,289.5,380,284.2,371.6,287.4z"/>
			<path class="st7" d="M383.9,347.4l3.5,9.7l1.9,5.4c0,0,0.1,9.7-2.1,12.2c-3.9,4.3-19.9-11.7-19.9-11.7l-5.1-30.4L383.9,347.4z"/>
			<path class="st9" d="M364,342.4c6.1,9.4,16.5,13.7,23.5,14.7l-3.6-9.8l-21.6-14.8L364,342.4z"/>
			<path class="st7" d="M366.5,301.3c8.1-5,18.8-1.2,22.1,7.6c1.5,3.8,3.1,8.7,4.4,14.1c3.1,13-0.8,27.2-6.8,28.5
				c-5.9,1.3-24.1-3.5-28.8-21.9C354.5,318.2,357.9,306.6,366.5,301.3z"/>
			<path class="st7" d="M362.1,330c0.6,2.9-0.8,5.6-3.1,6.1c-2.4,0.5-4.8-1.4-5.4-4.3c-0.6-2.9,0.8-5.6,3.1-6.1
				C359,325.3,361.5,327.2,362.1,330z"/>
			<path class="st6" d="M367.3,362.9c0,0-24.7,2.5-31.1,6.7c-4,2.6-0.9,32.1-0.9,32.1s5.7,44.5,4.9,67c-0.1,2.2-0.2,4.3-0.3,6.4
				c-2.2,33.8-20.3,114.8-18.7,116.3c10.2,5.7,65.8,5.5,66.4,1C393,554.2,367.3,362.9,367.3,362.9z"/>
			<path class="st13" d="M340.3,466.9c0,0.6,0,1.2,0,1.8c-0.1,2.1-0.2,4.2-0.3,6.3l33.8-15.8L340.3,466.9z"/>
			<path class="st7" d="M410.2,434.3c-1.2,0.5-3,1.5-4.3,2.3c-1.4,0.9-2.9,1.3-4.2,1.9c-2.5,1.2-4.3,2.1-4.3,2
				c0-0.2-0.6-0.3,0.6-1.1c1.5-1,5.2-2.5,7.2-4.2c1.2-1,3.8-2.8,3.8-2.8s3.4-3.5,3.3-3.8c-0.7-1.4-3.7,0.4-5.2,1.9
				c-1.4,0.5-4.1,2.5-4.1,2.5s-6.3,2.9-6.7,2.1c-0.2-0.4,3.5-2.6,6.7-5.3c3-2.5,5.7-5.6,5.3-6.2c-0.7-1.1-4.3,1.4-4.3,1.4
				s-2.5,1.9-3.3,2.4c-1,0.7-4.2,2.4-4.2,2.4s-11.4,5.6-11.7,4.7c-0.3-0.9-0.2-3.4,0.4-4c0.6-0.6,2.1-1.2,2.8-1.7
				c0.9-0.6,2.3-2.1,1.7-2.8c-0.6-0.8-6,1.2-6,1.2s-3.2,1.5-4.6,3.4c-4.9,6.7-3.6,7.3-4.3,8.1c-0.8,1-16.7,6.8-16.7,6.8
				s-47.9,11.9-50.5,12.7l6.4,19.3c2.9-0.4,56.6-21.9,62-24.4c0,0,7.6-0.7,12.3-1.3c4.7-0.6,9-3.2,10.3-3.6c0.2-0.1,4.5-1.5,9.3-4.7
				c4.2-2.8-1-2-1-2s-8.6,3.8-8.8,3.1c-0.1-0.6,4.7-2.3,9.4-5.3c1.2-0.8,2.4-1.5,3.5-2.3C413.8,435,413.5,432.8,410.2,434.3z"/>
			<path class="st6" d="M338.3,368.6c0,0-8.1,1.1-15,11.1c-6.9,10-22.3,52.9-27,69.4c-4.8,16.6-2.4,25.8,8.5,28.6
				c10.9,2.7,69-18.4,69-18.4l-5.4-19.9c0,0-38.5,8.5-39.9,7.9l12.1-20.8C340.5,426.3,350,392.6,338.3,368.6z"/>
		</g>
		<path class="st17" d="M380.4,335.4c0,0-7.8,2.5-8.4,5.4c-0.6,2.9,0.3,7,4.1,10.2c3.8,3.2,12,1.2,14.2-0.5
			c2.2-1.8,3.9-9.2,1.7-13.3S380.4,335.4,380.4,335.4z"/>
		<path class="st7" d="M377.8,341.4c0,0,0,3.2,1.1,3.8c1,0.6,2.3,1,3.6,1.1c2,0.2,3.7-0.7,4.8-2.2c0.1-0.1,0.2-0.3,0.3-0.5
			c0.8-1.6,1-4.4,1-4.4s-3.3-0.8-5.2-0.5C381.4,339.1,377.8,341.4,377.8,341.4z"/>
	</g>
	<g>
		<path class="st5" d="M1049.7,104.8c14.1,9.4,9.6,31.4-7.1,34.6c-3,0.6-5.7,2.3-7.5,4.7l-6.5,8.2c-1.8,2.3-5,2.8-7.4,1.2l-5.3-3.5
			c-2.4-1.6-3.2-4.8-1.8-7.3c5.1-9.2,7.7-12.3,6.5-17.9C1017.1,108.1,1035.6,95.5,1049.7,104.8z"/>
		<g>
			<path class="st3" d="M1029.1,144.3c4.4-7.3,9.5-15.2,11.6-18c-2.7-1.6-5.2-3.6-7.1-6c-3.4,6.2-6.9,12.4-10.6,18.4l-0.8-0.5
				c3.7-6.1,7.3-12.4,10.7-18.7c-1.2-1.5-2.4-3.4-2.3-5.3c0.1-0.9,0.5-1.8,1.3-2.3c1.9-1.5,4.1,0.2,4.1,2.5c0,1.6-0.9,3-2,5
				c2,2.5,4.4,4.6,7.2,6.2c1.1-1.4,2.3-2.6,3.9-3.2c5.7-1.9,4.9,8.8-3.6,4.3c-1.6,2.2-6.9,10.3-11.6,18.1L1029.1,144.3z
				 M1045.3,123.2c-1.4,0.5-2.4,1.5-3.4,2.7c1.9,0.9,3.3,1.2,4.5,0.7C1048.4,125.8,1048.4,122.1,1045.3,123.2z M1033.5,112.2
				c-1-0.2-2,0.9-2.1,2c-0.1,1.5,0.9,3.1,1.9,4.3c0.8-1.6,1.6-2.9,1.7-4.2C1035,113.4,1033.7,112.2,1033.5,112.2z"/>
		</g>
		<path class="st4" d="M1035.2,143.9c-0.1,0.1-0.1,0.1-0.2,0.2l-6.5,8.2c-1.8,2.3-5,2.8-7.4,1.2l-5.3-3.5c-2.4-1.6-3.2-4.8-1.8-7.3
			c2.3-4.1,4.1-7,5.2-9.4L1035.2,143.9z"/>
		<g>
			<path class="st5" d="M1064.1,103l8.3-6.3c0.8-0.6,1-1.7,0.4-2.5c-0.6-0.8-1.7-1-2.5-0.4l-8.3,6.3c-0.8,0.6-1,1.7-0.4,2.5
				C1062.2,103.4,1063.3,103.6,1064.1,103z"/>
		</g>
		<g>
			<path class="st5" d="M1065,127.6l10.3,3.6c0.9,0.3,2-0.2,2.3-1.1c0.3-0.9-0.2-2-1.1-2.3l-10.3-3.6c-0.9-0.3-2,0.2-2.3,1.1
				C1063.5,126.2,1064,127.2,1065,127.6z"/>
		</g>
		<g>
			<path class="st5" d="M1061.1,162.4c0.9-0.4,1.4-1.4,1-2.4c-1.4-3.5-3-6.9-5-10.1c-0.5-0.9-1.7-1.1-2.5-0.6
				c-0.9,0.5-1.1,1.7-0.6,2.5c1.9,3,3.5,6.2,4.7,9.5C1059.1,162.3,1060.2,162.8,1061.1,162.4z"/>
		</g>
		<g>
			<path class="st5" d="M1039.8,91.5c1,0.2,1.9-0.5,2.1-1.5c0.8-4.7,2-9.4,3.8-13.8c0.4-0.9-0.1-2-1-2.4c-0.9-0.4-2,0.1-2.4,1
				c-1.8,4.7-3.2,9.6-4,14.5C1038.1,90.4,1038.8,91.3,1039.8,91.5z"/>
		</g>
		<g>
			<path class="st5" d="M1023.8,99.6c0.7-0.8,0.6-1.9-0.2-2.6l-8.9-7.8c-0.8-0.7-1.9-0.6-2.6,0.2c-0.7,0.8-0.6,1.9,0.2,2.6l8.9,7.8
				C1022,100.5,1023.2,100.4,1023.8,99.6z"/>
		</g>
		<g>
			<path class="st5" d="M994.5,119.4c0.1,0.1,0.3,0.1,0.5,0.1c4,0.6,8.1,0.8,12.2,0.5c1-0.1,1.8-0.9,1.7-1.9c-0.1-1-0.9-1.8-1.9-1.7
				c-3.8,0.2-7.6,0.1-11.4-0.5c-1-0.2-1.9,0.5-2.1,1.5C993.4,118.3,993.8,119.1,994.5,119.4z"/>
		</g>
	</g>
	<g>
		<g>
			<path class="st11" d="M172.2,239.3c-0.1,0.1-0.2,0.2-0.4,0.3c-1.5,1-3.5,0.6-4.5-0.9c-1.1-1.7-2.4-3.3-3.8-4.8
				c-9.3-10-22.1-13.8-28.1-8.2c-8.8,8.2-25.2,4.4-37.3-8.6c-2.9-3.1,1.8-7.6,4.8-4.4c9.3,10,22.1,13.8,28.1,8.2
				c8.8-8.2,25.2-4.4,37.3,8.6c1.6,1.8,3.1,3.6,4.4,5.6C173.6,236.5,173.3,238.3,172.2,239.3z"/>
		</g>
		<path class="st0" d="M142,263.7c-15-11.8-21.9-32.6-11-42.7c6-5.5,3.2-18.7-6.1-28.6c-2.9-3.1,1.8-7.6,4.8-4.4
			c12.1,13,14.6,29.6,5.7,37.8c-6,5.5-3.2,18.7,6.1,28.6c1.4,1.5,3,3,4.6,4.2C149.4,261.3,145.3,266.4,142,263.7z"/>
		<path class="st0" d="M122.6,222.3l9.3-8.6c0.1-0.9,0-1.9-0.1-2.9l-10.7,9.9c-0.4,0.4-0.5,1.1-0.1,1.5
			C121.5,222.7,122.2,222.7,122.6,222.3z"/>
		<path class="st0" d="M114.7,219.4l15.6-14.5c-0.3-0.7-0.6-1.4-0.9-2.1l-16.2,15c-0.4,0.4-0.5,1.1-0.1,1.5
			C113.6,219.8,114.3,219.9,114.7,219.4z"/>
		<path class="st0" d="M152.1,231.8l-14.5,13.5c0.3,0.6,0.7,1.3,1.1,1.9l14.9-13.8c0.4-0.4,0.5-1.1,0.1-1.5
			C153.2,231.5,152.5,231.4,152.1,231.8z"/>
		<path class="st0" d="M108.1,215.4l18.6-17.2c-0.4-0.6-0.8-1.2-1.3-1.8l-18.8,17.4c-0.4,0.4-0.5,1.1-0.1,1.5
			C107,215.7,107.7,215.8,108.1,215.4z"/>
		<path class="st0" d="M159.2,240.4l-14.9,13.8c0.5,0.5,1,1,1.6,1.5l14.8-13.7c0.4-0.4,0.5-1.1,0.1-1.5
			C160.3,240,159.6,240,159.2,240.4z"/>
		<path class="st0" d="M143,225.1l-8.6,8c-0.1,0.9,0,1.9,0.1,2.9l10-9.3c0.4-0.4,0.5-1.1,0.1-1.5C144.2,224.8,143.5,224.7,143,225.1
			z"/>
	</g>
	<polygon class="st6" points="1070.1,162.9 1077,165 1081.6,154.3 1092.1,156.2 1096.8,148.7 1100.6,151.1 1094.2,161.1 
		1084.3,159.3 1079.5,170.5 1069.2,167.3 	"/>
	<polygon class="st6" points="634.5,76 641.4,78.1 646,67.4 656.4,69.3 661.2,61.8 665,64.2 658.6,74.2 648.7,72.4 643.9,83.6 
		633.5,80.4 	"/>
	<g>
		<polygon class="st6" points="405.3,76.2 419.4,78.1 420.2,61.2 415.6,61 415.1,72.9 405.9,71.6 		"/>
	</g>
	<g>
		<g>
			
				<rect x="864.3" y="31.9" transform="matrix(0.225 -0.9744 0.9744 0.225 643.9716 878.6487)" class="st4" width="20" height="5.3"/>
		</g>
		<g>
			<polygon class="st18" points="862.4,49.8 861.1,47.6 873.1,40.6 880.6,51 878.4,52.5 872.4,44.1 			"/>
		</g>
		<path class="st6" d="M865.1,43.7c0,0-3.5,15.2-4.4,19c-0.9,3.8-4.4,8-9.3,7.9c-4.9-0.1-14.9,0-17.8-0.7c-3.9-0.9-8.8-2.4-0.4-16.8
			c8.5-14.4,14.8-23.9,20.9-28.1c6.1-4.1,10.5-4.9,12.6-2.1C870.6,28.3,865.1,43.7,865.1,43.7z"/>
		<path class="st6" d="M877.3,46.5c0,0-3.5,15.2-4.4,19c-0.9,3.8,0.5,9.1,4.9,11.1c4.4,2,13.4,6.6,16.3,7.2c3.9,0.9,9,1.7,7.7-14.9
			s-2.8-28-6.4-34.4c-3.7-6.4-7.3-9-10.4-7.4C879.2,30.3,877.3,46.5,877.3,46.5z"/>
	</g>
	<g>
		<g>
			<path class="st7" d="M883.7,469c0,0,0.3,2.1,2.7,7.7c2.4,5.6,3.7-4.6,3.7-4.6L883.7,469z"/>
			<g>
				<g>
					<path class="st7" d="M982.8,393.2l-25.8,2.7l-8.1,42c-1.4,2.3-51.1,37.3-51.1,37.3s1.6,7.5,5.6,9.9
						c6.3-7.7,67.1-32.1,68.1-34.7C972.4,447.5,982.8,393.2,982.8,393.2z"/>
					<g>
						<polygon class="st3" points="957.5,527.4 880.3,460.5 926.1,405.7 996.7,478.4 						"/>
						
							<rect x="894.9" y="430.8" transform="matrix(0.7667 0.642 -0.642 0.7667 520.5582 -499.4614)" class="st3" width="105.3" height="71.5"/>
						
							<rect x="885.4" y="432.4" transform="matrix(0.7667 0.642 -0.642 0.7667 519.3049 -492.9837)" class="st4" width="105.3" height="71.5"/>
					</g>
				</g>
				<path class="st7" d="M1084.2,724.1c0,0,5.5,5.4,5.6,7.4c0.1,2,0.5,23.2-1.7,25.2c-2.2,2-8.8,3.4-6.7,5.6
					c1.6,1.7,13.8,1.3,22,0.9c2.4-0.1,5.3-19.3,6.3-22.1c1.4-4.1,6.3-13,5-15.8c-0.6-1.4-5.1-4.6-9.2-7.2c-4.3-2.8-8.4-9-8.4-9
					L1084.2,724.1z"/>
				<path class="st7" d="M1011.1,737.4c0,0,4.2,12.1,4.8,13.8c0,0.1,1.9,7.9,1.9,9.9c0,7.6-33.7-6.4-26.2-9.8
					c0.7-0.3,2.8-2.7,3.1-5.3c0.3-4-2.8-9-2.8-9L1011.1,737.4z"/>
				<g>
					<path class="st8" d="M964.6,471.5l-12.2,31.6c0,0-8,75.4-3.3,120.6c1.9,18.9,43.9,120,43.9,120l20.9-3L985.9,621l10.3-45.8
						l14.5-90.5L964.6,471.5z"/>
					<path class="st8" d="M1022.1,473.1l10.5,35.2l15.9,106.2l53.9,99.4c0,0-8.1,12.4-16.8,14.4l-76.5-100.4l-41.4-125.7l1.5-27.9
						L1022.1,473.1z"/>
				</g>
				<path class="st13" d="M952.9,410.8l29.7,3.1c0,0,1.4-24.7,1.4-36.5c0-14.3-2.6-32.2-4.3-31.7c-4.6,1.4-9.8,3.1-13.7,8.5
					C952.8,372.7,952.9,410.8,952.9,410.8z"/>
				<path class="st7" d="M1062.8,529.5c4.5-7.4,5.6-6.4,6.1-7.3c0.7-1.1-0.1-18.8-0.1-18.8s-1.8-52.2-2-55l-23.2-48.2l20.1-18.9
					c0,0,23.9,53.1,24.7,56.1c0.8,3-4.8,73.9-5,80.2c0,0,2.3,7.6,3.6,12.4c1.3,4.8,0.5,10,0.6,11.4c0,0.2,0.3,4.9-0.8,10.9
					c-1,5.1-2.3-0.2-2.3-0.2s0.2-9.8-0.6-9.7c-0.6,0.1-0.4,5.5-1.4,11.1c-0.3,1.5-0.5,2.9-0.8,4.2c-0.7,3.5-2.9,4.1-2.8,0.3
					c0.1-1.3,0.2-3.5,0.5-5.1c0.3-1.7,0.1-3.3,0.2-4.8c0.2-2.9,0.3-5,0.2-4.9c-0.2,0.1-0.5-0.5-0.8,1c-0.4,1.9-0.4,6-1.2,8.7
					c-0.4,1.5-1.2,4.8-1.2,4.8s-2,4.7-2.3,4.7c-1.6-0.1-1.1-3.7-0.3-5.7c-0.1-1.6,0.8-4.9,0.8-4.9s0.3-7.2-0.7-7.3
					c-0.4,0-1.1,4.4-2.5,8.6c-1.3,3.9-3.1,7.7-3.9,7.6c-1.3-0.2-0.4-4.7-0.4-4.7s0.8-3.1,1-4.2c0.2-1.2,0.6-5,0.6-5
					s0.8-13.2-0.1-13.1c-0.9,0-3.3,1.1-3.7,1.9c-0.3,0.8-0.2,2.6-0.5,3.4c-0.3,0.8-1.4,1.6-2.4,1.2c-1-0.3-0.8-4.8-0.8-4.8
					S1061.5,531.6,1062.8,529.5z"/>
				<path class="st8" d="M1105.2,717.8c0,0-11.5,35.3-16.4,37c-1.3,0.5-8.7,2.3-9.9,5.1c0,0.1-0.1,0.2-0.1,0.3
					c-0.4,1.8,1.1,3.4,2.9,3.4h23.4c0,0,3.3-15.8,4.6-22.8c0,0,7-17,6.2-18.5C1115.2,720.8,1105.2,717.8,1105.2,717.8z"/>
				<path class="st8" d="M1019.7,763.6l-3.8-12.4c0,0-8.2,3.5-12.2,2.9c-4.1-0.6-12-2.9-12-2.9c-16.2,5.4-29.4,8-27,12.4l0,0H1019.7
					z"/>
				<path class="st6" d="M1018.3,344c0,0,15.7,2.2,19.9,5.2c4.7,3.4,19.1,19.4,19.1,19.4s-30.1,86.1-28.9,101.4
					c1.2,15.3,4.5,38,4.5,38s-58.4,3.7-80.5-5c0,0,7-34.7,7-43.8c0-9.1,3.9-100.2,6.7-105c2.8-4.8,8.4-7.5,19.1-9.8
					C995.8,342.1,1018.3,344,1018.3,344z"/>
				<path class="st7" d="M1014,319.5l3.9,24.6c0,0-14.2,31.3-22.7,28.6c-7.1-2.2-2.7-29.1-2.7-29.1s3.9-14.4,2.7-21.6
					C994,314.7,1014,319.5,1014,319.5z"/>
				<path class="st9" d="M995.1,322c-1.2-7.2,18.8-2.5,18.8-2.5l0.3,2.1c-0.6,1.4-1.3,2.6-2.2,3.6c-4.5,4.8-11.5,7.6-17.5,7.9
					C995.2,329.1,995.6,324.9,995.1,322z"/>
				<g>
					<path class="st7" d="M1017.3,283.4c0.6-0.2,4.5,29-3,37.1c-7.5,8-22.2,10.7-27.5,4.3c-5.8-7-5.5-38.4,6.2-46.7
						C1004.7,269.8,1017.3,283.4,1017.3,283.4z"/>
					<path class="st14" d="M1014.5,272.1c4.1,0.5,9.7,2.7,15.5,12.2c7.1,11.7,1.9,24.6-6.4,30.9c-8.3,6.3-8.2,13.7-8.2,13.7
						l-1.3-3.8c-1-2.9-1.4-5.9-1-8.9c0.2-1.8,0.6-3.8,1.3-5.4c2-4.2-4.3-7-6-10.6c-1.3-2.7-1.4-8.9-3.5-13.4l-2.5-3.4
						c0,0-5.9-4.5-11.6-3.2C985,281.5,995.3,259.2,1014.5,272.1z"/>
					<path class="st7" d="M1008.8,305.5c-0.1,3.6,1.6,6.5,3.6,6.5c2.1,0,3.8-2.8,3.9-6.4c0.1-3.6-1.6-6.5-3.6-6.5
						C1010.6,299,1008.8,301.9,1008.8,305.5z"/>
				</g>
				<path class="st13" d="M1076.8,399.5l-26.3,20.5c0,0-11.6-11.1-17.5-23.5c-5.9-12.5-1.8-49.4,4.5-47.7
					C1051.6,352.7,1076.8,399.5,1076.8,399.5z"/>
			</g>
		</g>
		<path class="st7" d="M906.2,472.3c-0.6-0.2-1.4,0.2-2.3,0.9c2.4-3.1,4.4-6.3,3.1-6.8c-0.5-0.2-4.7,3.2-5.6,3.7
			c1.2-1.5,4.8-4.5,3.3-5.7c-0.9-0.7-5.2,2.7-7.6,4.8c1.4-1.4,2.9-3.6,2.2-3.8c-1.5-0.6-10.3,7.8-12.7,7c-2.4-0.8-0.8,4.6,2.1,7.7
			c1.2,1.9,4.6,2.5,5.9,3.3c3.2,2.1,5.8,0.4,6,0.4C900.6,483.7,908.6,473.2,906.2,472.3z"/>
	</g>
	<g>
		<g>
			<path class="st0" d="M580.2,82.9l-50-8.5l0.6-3.5l50,8.5c6,1,10.3-5.8,6.8-10.8c-1.1-1.5-2.7-2.5-4.5-2.8l-11.5-1.9
				c-4.9-0.8-8.2-5.5-7.4-10.4c0.8-4.9,5.5-8.2,10.4-7.4l35.5,6l-0.6,3.5l-35.5-6c-2.9-0.5-5.7,1.5-6.2,4.4
				c-0.5,2.9,1.5,5.7,4.4,6.2l11.5,1.9c9.1,1.5,11.9,13.4,4.3,18.8C586.2,82.4,583,83.4,580.2,82.9z"/>
		</g>
		<path class="st0" d="M541.5,66.4c2.7,12-4.9,23.9-16.9,26.5c-12,2.7-23.9-4.9-26.5-16.9c-2.7-12,4.9-23.9,16.9-26.5
			C526.9,46.8,538.8,54.4,541.5,66.4z"/>
		<path class="st1" d="M538,67.2c2.2,10.1-4.1,20.1-14.2,22.3c-10.1,2.2-20.1-4.1-22.3-14.2c-2.2-10.1,4.1-20.1,14.2-22.3
			C525.8,50.7,535.8,57.1,538,67.2z"/>
		<g>
			<g>
				<path class="st0" d="M524.5,92.2c-0.5,0.1-1-0.2-1.1-0.7l-1.5-6.6c-0.1-0.5,0.2-1,0.7-1.1c0.5-0.1,1,0.2,1.1,0.7l1.5,6.6
					C525.2,91.6,524.9,92.1,524.5,92.2z"/>
			</g>
			<g>
				<path class="st0" d="M517,58.5c-0.5,0.1-1-0.2-1.1-0.7l-1.6-7.1c-0.1-0.5,0.2-1,0.7-1.1c0.5-0.1,1,0.2,1.1,0.7l1.6,7.1
					C517.7,58,517.4,58.4,517,58.5z"/>
			</g>
			<g>
				<path class="st0" d="M539.3,67.4l-5.9,1.3c-0.5,0.1-1-0.2-1.1-0.7c-0.1-0.5,0.2-1,0.7-1.1l5.9-1.3c0.5-0.1,1,0.2,1.1,0.7
					C540.1,66.8,539.8,67.3,539.3,67.4z"/>
			</g>
			<g>
				<path class="st0" d="M506.4,74.7l-6.4,1.4c-0.5,0.1-1-0.2-1.1-0.7c-0.1-0.5,0.2-1,0.7-1.1L506,73c0.5-0.1,1,0.2,1.1,0.7
					C507.2,74.1,506.9,74.6,506.4,74.7z"/>
			</g>
			<g>
				<path class="st0" d="M508.1,89.2c-0.2,0.1-0.5,0-0.7-0.1c-0.4-0.3-0.5-0.8-0.2-1.2l4-5.8c0.3-0.4,0.8-0.5,1.2-0.2
					c0.4,0.3,0.5,0.8,0.2,1.2l-4,5.8C508.5,89.1,508.3,89.2,508.1,89.2z"/>
			</g>
			<g>
				<path class="st0" d="M527.6,60.6c-0.2,0.1-0.5,0-0.7-0.1c-0.4-0.3-0.5-0.8-0.2-1.2l4-5.9c0.3-0.4,0.8-0.5,1.2-0.2
					c0.4,0.3,0.5,0.8,0.2,1.2l-4,5.9C528,60.5,527.8,60.6,527.6,60.6z"/>
			</g>
			<g>
				<path class="st0" d="M536.3,83.1c-0.2,0.1-0.5,0-0.7-0.1l-4.9-3.3c-0.4-0.3-0.5-0.8-0.2-1.2c0.3-0.4,0.8-0.5,1.2-0.2l4.9,3.3
					c0.4,0.3,0.5,0.8,0.2,1.2C536.7,82.9,536.5,83.1,536.3,83.1z"/>
			</g>
			<g>
				<path class="st0" d="M508.7,64.2c-0.2,0.1-0.5,0-0.7-0.1l-5.5-3.8c-0.4-0.3-0.5-0.8-0.2-1.2c0.3-0.4,0.8-0.5,1.2-0.2l5.5,3.8
					c0.4,0.3,0.5,0.8,0.2,1.2C509.1,64.1,508.9,64.2,508.7,64.2z"/>
			</g>
		</g>
		<path class="st0" d="M514.8,48.6c2.8-0.6,5.5-0.7,8.2-0.3l-0.2-4.2c-0.1-2.5-2.3-4.4-4.8-4.3l0,0c-2.5,0.1-4.4,2.3-4.3,4.8
			l0.2,4.3C514.1,48.8,514.4,48.7,514.8,48.6z"/>
		<path class="st0" d="M501.9,56.5c1.9-2.3,4.3-4.3,7.1-5.8l-1.9-2.4c-1.6-2-4.4-2.3-6.4-0.8l0,0c-2,1.6-2.3,4.4-0.8,6.4L501.9,56.5
			z"/>
		<path class="st0" d="M521.9,70.4c0.3,1.2-0.5,2.4-1.7,2.7c-1.2,0.3-2.4-0.5-2.7-1.7c-0.3-1.2,0.5-2.4,1.7-2.7
			C520.4,68.5,521.6,69.2,521.9,70.4z"/>
		<path class="st0" d="M519,70.1c0.5-0.2,1.1,0,1.4,0.5c0.3,0.6,0,1.3-0.7,1.4l-8.5,2.2c-0.1,0-0.2,0-0.2-0.1
			C511,73.9,510.8,74.1,519,70.1z"/>
		<path class="st0" d="M613.2,47.3c5.2,0.9,8.9,4.9,8.3,8.9c-0.7,4-5.5,6.6-10.7,5.7c-5.2-0.9-8.9-4.9-8.3-8.9
			C603.1,48.9,607.9,46.4,613.2,47.3z"/>
		<path class="st0" d="M602.5,49.8c1.3,0.2,2.2,1.8,1.9,3.6c-0.3,1.7-1.6,3-3,2.8c-1.3-0.2-2.2-1.8-1.9-3.6
			C599.8,50.8,601.1,49.6,602.5,49.8z"/>
	</g>
	<g>
		<g>
			<path class="st11" d="M734.8,61.8c-1-2.1-1.4-5.2-0.4-7.6c1.7-4.2,6.7-6,6.2-10.7c-0.1-1.2-0.7-2.1-1.5-2.7
				c-2.1-1.6-5.4-0.6-7.7,0.6c-1.5,0.8-2.9,1.8-4.1,3.2l-0.9-8.3c2.8-2.1,6.2-3.2,9.6-3.5c7-0.7,12.4,1.8,13.1,8.7
				c0.7,6.4-3.6,9.3-6.4,12.5c-1.6,1.8-1.9,3.2-1.7,4.7c0.1,0.8,0.4,1.8,0.9,2.4L734.8,61.8z M740.1,73.1c-6.8,0.7-7.8-8.4-0.9-9.1
				C745.9,63.3,746.9,72.4,740.1,73.1z"/>
		</g>
	</g>
	<g>
		<polygon class="st0" points="776.7,60 776.9,50.5 779.8,50.5 779.7,56.8 785.9,56.2 786.2,59 		"/>
	</g>
</g>
</svg>
