<?xml version="1.0" encoding="utf-8"?>
<!-- Generator: Adobe Illustrator 23.1.0, SVG Export Plug-In . SVG Version: 6.00 Build 0)  -->
<svg version="1.1" id="Layer_1" xmlns="http://www.w3.org/2000/svg" xmlns:xlink="http://www.w3.org/1999/xlink" x="0px" y="0px"
	 viewBox="0 0 2000 2000" style="enable-background:new 0 0 2000 2000;" xml:space="preserve">
<style type="text/css">
	.st0{clip-path:url(#SVGID_2_);fill:url(#SVGID_3_);}
	.st1{clip-path:url(#SVGID_5_);fill:url(#SVGID_6_);}
	.st2{clip-path:url(#SVGID_8_);fill:url(#SVGID_9_);}
	.st3{clip-path:url(#SVGID_11_);fill:url(#SVGID_12_);}
	.st4{clip-path:url(#SVGID_14_);fill:url(#SVGID_15_);}
	.st5{clip-path:url(#SVGID_17_);fill:url(#SVGID_18_);}
	.st6{clip-path:url(#SVGID_20_);fill:url(#SVGID_21_);}
	.st7{clip-path:url(#SVGID_23_);fill:url(#SVGID_24_);}
	.st8{clip-path:url(#SVGID_26_);fill:url(#SVGID_27_);}
	.st9{clip-path:url(#SVGID_29_);fill:url(#SVGID_30_);}
</style>
<g>
	<g>
		<defs>
			<path id="SVGID_1_" d="M677.9,85.9H1000c177.2,0,322.1,145,322.1,322.1v203.1c-19.9,349.5,106.8,564.2,380.1,644.3
				c-264.3-17.5-515.3-130-704.8-319.6C807.9,746.2,695.3,495.2,677.9,231V85.9z"/>
		</defs>
		<clipPath id="SVGID_2_">
			<use xlink:href="#SVGID_1_"  style="overflow:visible;"/>
		</clipPath>
		<linearGradient id="SVGID_3_" gradientUnits="userSpaceOnUse" x1="1715.8704" y1="1409.764" x2="376.8258" y2="-472.5756">
			<stop  offset="0" style="stop-color:#045304"/>
			<stop  offset="0.2428" style="stop-color:#1B6B06"/>
			<stop  offset="0.7517" style="stop-color:#55A70D"/>
			<stop  offset="1" style="stop-color:#73C710"/>
		</linearGradient>
		<rect x="677.9" y="85.9" class="st0" width="1024.4" height="1169.5"/>
	</g>
	<g>
		<defs>
			<path id="SVGID_4_" d="M707.3,115.3V230c17.3,258.3,127.8,501.8,311,685c136.2,136.2,305.8,232.3,490.1,279.6
				C1132.7,974,930.9,545.5,1000,115.3H707.3z"/>
		</defs>
		<clipPath id="SVGID_5_">
			<use xlink:href="#SVGID_4_"  style="overflow:visible;"/>
		</clipPath>
		<linearGradient id="SVGID_6_" gradientUnits="userSpaceOnUse" x1="1668.6663" y1="1443.343" x2="329.6189" y2="-439.0004">
			<stop  offset="0" style="stop-color:#045304"/>
			<stop  offset="0.2483" style="stop-color:#227307"/>
			<stop  offset="0.7572" style="stop-color:#5CAF0E"/>
			<stop  offset="1" style="stop-color:#73C710"/>
		</linearGradient>
		<rect x="707.3" y="115.3" class="st1" width="801" height="1079.3"/>
	</g>
	<g>
		<defs>
			<path id="SVGID_7_" d="M1322.1,611.1c-19.9,349.5,106.8,564.2,380.1,644.3h145.1V933.2c0-177.2-145-322.1-322.1-322.1H1322.1z"/>
		</defs>
		<clipPath id="SVGID_8_">
			<use xlink:href="#SVGID_7_"  style="overflow:visible;"/>
		</clipPath>
		<linearGradient id="SVGID_9_" gradientUnits="userSpaceOnUse" x1="835.9968" y1="733.4969" x2="2541.4138" y2="1194.5959">
			<stop  offset="0" style="stop-color:#0131B8"/>
			<stop  offset="0.2837" style="stop-color:#0651C8"/>
			<stop  offset="0.9035" style="stop-color:#13A2F0"/>
			<stop  offset="1" style="stop-color:#15AFF7"/>
		</linearGradient>
		<rect x="1302.2" y="611.1" class="st2" width="545.2" height="644.3"/>
	</g>
	<g>
		<defs>
			<path id="SVGID_10_" d="M1322.1,611.1c-19.9,349.5,106.8,564.2,380.1,644.3c-232.5-122.8-348.4-390.8-278.6-644.3H1322.1z"/>
		</defs>
		<clipPath id="SVGID_11_">
			<use xlink:href="#SVGID_10_"  style="overflow:visible;"/>
		</clipPath>
		<linearGradient id="SVGID_12_" gradientUnits="userSpaceOnUse" x1="831.0546" y1="751.7772" x2="2536.4729" y2="1212.8765">
			<stop  offset="0" style="stop-color:#0131B8"/>
			<stop  offset="0.1738" style="stop-color:#0235BA"/>
			<stop  offset="0.3531" style="stop-color:#0442C0"/>
			<stop  offset="0.5349" style="stop-color:#0756CB"/>
			<stop  offset="0.7184" style="stop-color:#0B73D9"/>
			<stop  offset="0.9015" style="stop-color:#1198EB"/>
			<stop  offset="1" style="stop-color:#15AFF7"/>
		</linearGradient>
		<rect x="1302.2" y="611.1" class="st3" width="400.1" height="644.3"/>
	</g>
	<g>
		<defs>
			<path id="SVGID_13_" d="M1322.1,1914.1H1000c-177.2,0-322.1-145-322.1-322.1v-203.1c19.9-349.5-106.8-564.2-380.1-644.3
				c264.3,17.5,515.3,130,704.8,319.6c189.6,189.6,302.1,440.6,319.6,704.8V1914.1z"/>
		</defs>
		<clipPath id="SVGID_14_">
			<use xlink:href="#SVGID_13_"  style="overflow:visible;"/>
		</clipPath>
		<linearGradient id="SVGID_15_" gradientUnits="userSpaceOnUse" x1="284.1726" y1="590.2943" x2="1623.2189" y2="2472.6362">
			<stop  offset="0" style="stop-color:#0131B8"/>
			<stop  offset="0.2262" style="stop-color:#0549C4"/>
			<stop  offset="0.7006" style="stop-color:#0E86E2"/>
			<stop  offset="1" style="stop-color:#15AFF7"/>
		</linearGradient>
		<rect x="297.7" y="744.6" class="st4" width="1024.4" height="1169.5"/>
	</g>
	<g>
		<defs>
			<path id="SVGID_16_" d="M1292.7,1884.7V1770c-17.3-258.3-127.8-501.8-311-685C845.5,948.8,675.9,852.8,491.7,805.4
				c375.7,220.6,577.5,649.1,508.3,1079.3H1292.7z"/>
		</defs>
		<clipPath id="SVGID_17_">
			<use xlink:href="#SVGID_16_"  style="overflow:visible;"/>
		</clipPath>
		<linearGradient id="SVGID_18_" gradientUnits="userSpaceOnUse" x1="331.3756" y1="556.7163" x2="1670.4231" y2="2439.0598">
			<stop  offset="0" style="stop-color:#0131B8"/>
			<stop  offset="0.2685" style="stop-color:#0756CB"/>
			<stop  offset="0.7651" style="stop-color:#1196EA"/>
			<stop  offset="1" style="stop-color:#15AFF7"/>
		</linearGradient>
		<rect x="491.7" y="805.4" class="st5" width="801" height="1079.3"/>
	</g>
	<g>
		<defs>
			<path id="SVGID_19_" d="M677.9,1388.9c19.9-349.5-106.8-564.2-380.1-644.3H152.6v322.1c0,177.2,145,322.1,322.1,322.1H677.9z"/>
		</defs>
		<clipPath id="SVGID_20_">
			<use xlink:href="#SVGID_19_"  style="overflow:visible;"/>
		</clipPath>
		<linearGradient id="SVGID_21_" gradientUnits="userSpaceOnUse" x1="1164.0295" y1="1266.4976" x2="-541.4995" y2="805.397">
			<stop  offset="0" style="stop-color:#045304"/>
			<stop  offset="0.3079" style="stop-color:#237307"/>
			<stop  offset="0.9813" style="stop-color:#71C510"/>
			<stop  offset="1" style="stop-color:#73C710"/>
		</linearGradient>
		<rect x="152.6" y="744.6" class="st6" width="545.2" height="644.3"/>
	</g>
	<g>
		<defs>
			<path id="SVGID_22_" d="M677.9,1388.9c19.9-349.5-106.8-564.2-380.1-644.3c232.5,122.8,348.4,390.8,278.6,644.3H677.9z"/>
		</defs>
		<clipPath id="SVGID_23_">
			<use xlink:href="#SVGID_22_"  style="overflow:visible;"/>
		</clipPath>
		<linearGradient id="SVGID_24_" gradientUnits="userSpaceOnUse" x1="1168.9713" y1="1248.2184" x2="-536.556" y2="787.1182">
			<stop  offset="0" style="stop-color:#045304"/>
			<stop  offset="0.1804" style="stop-color:#085704"/>
			<stop  offset="0.3677" style="stop-color:#146406"/>
			<stop  offset="0.5581" style="stop-color:#287808"/>
			<stop  offset="0.7506" style="stop-color:#44950B"/>
			<stop  offset="0.9431" style="stop-color:#67BB0F"/>
			<stop  offset="1" style="stop-color:#73C710"/>
		</linearGradient>
		<rect x="297.7" y="744.6" class="st7" width="400.1" height="644.3"/>
	</g>
	<g>
		<defs>
			<path id="SVGID_25_" d="M413.5,304.9c91.9,0,166.4,74.5,166.4,166.4c0,91.9-74.5,166.4-166.4,166.4
				c-91.9,0-166.4-74.5-166.4-166.4C247.1,379.4,321.6,304.9,413.5,304.9"/>
		</defs>
		<clipPath id="SVGID_26_">
			<use xlink:href="#SVGID_25_"  style="overflow:visible;"/>
		</clipPath>
		<linearGradient id="SVGID_27_" gradientUnits="userSpaceOnUse" x1="791.4832" y1="799.2106" x2="59.4032" y2="164.1858">
			<stop  offset="0" style="stop-color:#045304"/>
			<stop  offset="0.413" style="stop-color:#2F8009"/>
			<stop  offset="1" style="stop-color:#73C710"/>
		</linearGradient>
		<rect x="247.1" y="304.9" class="st8" width="332.8" height="332.8"/>
	</g>
	<g>
		<defs>
			<path id="SVGID_28_" d="M413.5,321.6c82.7,0,149.7,67,149.7,149.7c0,82.7-67,149.7-149.7,149.7c-82.7,0-149.7-67-149.7-149.7
				C263.7,388.6,330.8,321.6,413.5,321.6"/>
		</defs>
		<clipPath id="SVGID_29_">
			<use xlink:href="#SVGID_28_"  style="overflow:visible;"/>
		</clipPath>
		<linearGradient id="SVGID_30_" gradientUnits="userSpaceOnUse" x1="794.1464" y1="796.2803" x2="111.9788" y2="213.9423">
			<stop  offset="0" style="stop-color:#045304"/>
			<stop  offset="0.5871" style="stop-color:#489A0B"/>
			<stop  offset="1" style="stop-color:#73C710"/>
		</linearGradient>
		<rect x="263.7" y="321.6" class="st9" width="299.5" height="299.5"/>
	</g>
</g>
</svg>
